<svg xmlns="http://www.w3.org/2000/svg" x="0px" y="0px" viewBox="0 0 864 864" enable-background="new 0 0 864 864"><style>.ls0{fill:#000}</style><g class="ls0"><g><path d="M145.2,242.8h-63v180.1v32.1c0,10.4,0.7,20.8,2,30.9c9,68.7,47.5,129.9,104.9,167.8l45.8-45.8c-46.1-25.7-77.9-70.5-87-122 h111.8h35.4l13,13l17.9,17.9l30.9,30.9v112.9V729l63,26.6v-68.4V521.6l-35.7-35.7L357,458.6l-4.2-4.2l4.2-4.2l27.2-27.2l35.8-35.8 v-81.3v-63h-63H145.2z M357,361l-48.8,48.8l-13.1,13h-35.4H145.2V305.8H357V361z"/></g><g><path d="M724.3,242.8l-5.5,5.1l-62.1,57.9L613,346.5l-43.7-40.7L507,247.7l-5.3-4.9h-50H444v8.3v24.1v30.7v381.5v68.4l63-26.7 v-68.4V485.8v-152l59.8,55.7l46.2,43.1l46.2-43.1l59.6-55.5v121c0,64.1-34.7,122.3-89.8,153l45.8,45.8c66-43.5,107-117.8,107-198.8 V275.2v-24.4v-8.1h-7.5H724.3z"/></g></g></svg>